<svg width="32" height="32" viewBox="0 0 32 32" fill="none" xmlns="http://www.w3.org/2000/svg">
<path d="M31.905 2.98397C22.359 -0.674593 11.983 -0.976772 2.26769 2.12085C1.88152 2.22047 1.51793 2.40297 1.19862 2.65745C0.87932 2.91192 0.610855 3.23315 0.409256 3.60196C0.207657 3.97076 0.0770579 4.37959 0.0252573 4.80401C-0.0265432 5.22844 0.00151657 5.65976 0.107761 6.07224C0.639498 8.37282 1.41512 11.0161 2.34665 13.4125C2.36265 13.4686 2.38763 13.4416 2.38763 13.3856C2.2527 12.2617 3.0543 10.8426 4.62653 10.3264C12.1823 7.73401 20.3136 7.85008 27.8031 10.6572C28.0793 10.7591 28.3717 10.8003 28.6629 10.7784C28.9542 10.7565 29.2384 10.672 29.4989 10.5298C29.7593 10.3876 29.9907 10.1906 30.1795 9.9504C30.3682 9.71024 30.5104 9.43177 30.5977 9.13142C31.5292 5.89875 31.905 3.70377 31.998 3.15422C32.014 3.05185 31.93 3.01306 31.905 2.98504V2.98397ZM8.87343 10.0958C7.72899 10.3534 6.14677 10.7585 4.95936 11.1831C2.58554 12.0656 2.69548 15.1797 3.95986 16.1732C4.05281 15.5957 4.62653 14.8101 5.26621 14.5451C7.63604 13.5408 10.1808 12.9406 12.7535 12.6927C11.4462 12.1206 10.1708 11.3005 8.89042 10.0948L8.87343 10.0958ZM27.7711 16.3306C24.3607 14.603 20.6636 13.6301 16.8985 13.4693C13.1333 13.3084 9.37644 13.963 5.84992 15.3942C4.71948 15.8543 4.01183 17.337 4.71948 18.7443C5.95571 21.1539 7.35866 23.4595 8.91641 25.6417C8.69252 24.8055 9.08832 23.2571 10.6076 22.7506C14.8095 21.3584 19.2183 21.9489 22.1489 23.228C22.9765 23.5868 24.1479 23.3692 24.8045 22.3088C25.9244 20.449 26.943 18.5205 27.855 16.5331C27.896 16.4437 27.855 16.3769 27.7711 16.3306ZM20.9624 27.494C19.7333 26.8249 18.6091 25.9518 17.6311 24.9068C17.1783 24.4187 16.5117 23.7172 15.809 22.881C14.2048 22.881 12.6476 23.0545 10.9824 23.6278C9.43615 24.1493 9.29122 26.0749 9.96789 27.0792C11.1123 28.6168 11.9149 29.4466 13.1953 30.8732C13.8738 31.5908 14.785 31.9949 15.7355 32C16.6859 32.005 17.6007 31.6105 18.2858 30.9002C19.2853 29.8226 19.9 29.1039 21.0294 27.7236C21.0964 27.6503 21.0704 27.522 20.9615 27.494H20.9624Z" fill="black"/>
</svg>
