<svg width="256" height="256" viewBox="0 0 256 256" fill="none" xmlns="http://www.w3.org/2000/svg">
<path d="M255.24 23.8717C178.872 -5.39675 95.8639 -7.81418 18.1415 16.9668C15.0522 17.7638 12.1434 19.2238 9.58899 21.2596C7.03456 23.2954 4.88684 25.8652 3.27405 28.8157C1.66125 31.7661 0.616463 35.0367 0.202059 38.4321C-0.212346 41.8275 0.0121326 45.2781 0.862091 48.5779C5.11599 66.9826 11.3209 88.1285 18.7732 107.3C18.9012 107.749 19.1011 107.533 19.1011 107.085C18.0216 98.0937 24.4344 86.7406 37.0122 82.6114C97.4581 61.8721 162.509 62.8006 222.425 85.2579C224.634 86.0728 226.973 86.4024 229.303 86.2273C231.633 86.0521 233.907 85.3758 235.991 84.2381C238.075 83.1005 239.926 81.5245 241.436 79.6032C242.945 77.6819 244.083 75.4542 244.781 73.0513C252.234 47.19 255.24 29.6302 255.984 25.2338C256.112 24.4148 255.44 24.1045 255.24 23.8804V23.8717ZM70.9874 80.7666C61.8319 82.8269 49.1742 86.0682 39.6749 89.4647C20.6843 96.5248 21.5639 121.438 31.6789 129.386C32.4225 124.765 37.0122 118.481 42.1297 116.36C61.0883 108.326 81.4462 103.525 102.028 101.542C91.5692 96.9644 81.3663 90.4043 71.1233 80.758L70.9874 80.7666ZM222.169 130.645C194.885 116.824 165.309 109.041 135.188 107.754C105.066 106.467 75.0115 111.704 46.7994 123.153C37.7558 126.834 32.0946 138.696 37.7558 149.954C47.6457 169.231 58.8693 187.676 71.3312 205.134C69.5401 198.444 72.7066 186.057 84.8606 182.005C118.476 170.867 153.746 175.591 177.191 185.824C183.812 188.695 193.183 186.953 198.436 178.471C207.395 163.592 215.544 148.164 222.84 132.265C223.168 131.55 222.84 131.015 222.169 130.645ZM167.7 219.952C157.866 214.599 148.873 207.615 141.049 199.255C137.427 195.35 132.093 189.738 126.472 183.048C113.638 183.048 101.18 184.436 87.8591 189.022C75.4892 193.194 74.3298 208.599 79.7431 216.633C88.8986 228.935 95.3194 235.572 105.562 246.986C110.991 252.726 118.28 255.959 125.884 256C133.487 256.04 140.806 252.884 146.286 247.201C154.282 238.581 159.2 232.831 168.235 221.788C168.771 221.202 168.563 220.176 167.692 219.952H167.7Z" fill="black"/>
</svg>
